<svg width="111" height="68" viewBox="0 0 111 68" fill="none" xmlns="http://www.w3.org/2000/svg">
<g clip-path="url(#clip0_1354_8008)">
<mask id="mask0_1354_8008" style="mask-type:luminance" maskUnits="userSpaceOnUse" x="3" y="2" width="106" height="65">
<path d="M30.0201 4.10682L29.8848 4.21248L5.38412 28.8527L5.30382 28.9414C2.41715 32.293 2.27345 36.4983 4.94034 39.9048L5.06713 40.0697L29.4284 64.4309C30.6963 65.8129 32.6574 66.5822 34.8509 66.5483C37.0106 66.5145 38.9252 65.7073 40.1466 64.3295C41.0638 63.4123 50.9621 53.5478 52.5639 51.946H59.5714V48.3831L94.2705 48.3915L108.226 34.7232L94.1141 20.5519H59.5714V16.9975H52.4329C50.7508 15.3196 40.0748 4.68162 40.0748 4.68162C38.3969 3.11783 36.5246 2.33594 34.6692 2.33594C33.0547 2.33594 31.4571 2.92764 30.0158 4.11104" fill="white"/>
</mask>
<g mask="url(#mask0_1354_8008)">
<path d="M108.231 2.32812H2.26953V66.5743H108.231V2.32812Z" fill="url(#paint0_linear_1354_8008)"/>
</g>
<mask id="mask1_1354_8008" style="mask-type:luminance" maskUnits="userSpaceOnUse" x="6" y="5" width="98" height="59">
<path d="M32.1465 6.69403L7.84025 31.1271C5.91299 33.3714 6.00175 35.8227 7.57821 37.8429L31.838 62.107C33.1102 63.5989 36.4913 63.5524 37.7128 62.0182L51.1825 48.5908H56.2246V45.0364H92.9059L103.48 34.6858L92.7326 23.8914H56.2288V20.337H51.0557L37.717 7.0406C36.7196 6.11501 35.701 5.67969 34.7078 5.67969C33.8202 5.67969 32.9538 6.03048 32.1465 6.69403Z" fill="white"/>
</mask>
<g mask="url(#mask1_1354_8008)">
<path d="M103.474 5.67969H5.90625V63.5947H103.474V5.67969Z" fill="url(#paint1_linear_1354_8008)"/>
</g>
<path d="M46.0093 22.1828L39.7795 28.328L34.6909 23.2817L28.2413 29.8622H53.862V38.8984L34.8177 57.8498L23.5499 46.7554L29.6867 40.6946L34.7331 45.6142L41.3602 39.0759H15.8663L11.2637 34.5113L34.6909 10.9531L46.0093 22.1828Z" fill="white"/>
<path d="M60.0918 27.2734V41.5292H68.9969L68.9504 37.0534H64.6986V27.2734H60.0918Z" fill="white"/>
<path d="M70.5781 27.3125V41.4373H81.2795V37.2277V35.2963H76.7234V36.9615H75.2695V32.0039H76.7234V33.6733H81.364V27.3125H70.5781Z" fill="white"/>
<path d="M82.9023 41.5292L86.1483 27.2734H92.0272L95.2774 41.5292H90.5353L89.1744 35.1684L87.7289 41.5292H82.9023Z" fill="white"/>
<path d="M53.8613 27.3125H58.4639V41.4373H53.8613V38.893L58.4217 34.3749L53.8613 29.8568V27.3125Z" fill="white"/>
<mask id="mask2_1354_8008" style="mask-type:luminance" maskUnits="userSpaceOnUse" x="0" y="0" width="111" height="68">
<path d="M110.221 0H0.777344V67.9866H110.221V0Z" fill="white"/>
</mask>
<g mask="url(#mask2_1354_8008)">
<path d="M104.932 21.4925H106.157C106.719 21.4925 107.007 21.7503 107.007 22.1856C107.007 22.6759 106.664 22.8027 106.584 22.8323V22.8407C106.741 22.8619 106.965 22.976 106.965 23.3817C106.965 23.6818 107.007 23.9523 107.104 24.058H106.622C106.555 23.9481 106.555 23.8044 106.555 23.6818C106.555 23.2127 106.457 23.0013 106.043 23.0013H105.38V24.058H104.932V21.4883V21.4925ZM105.38 22.6632H106.115C106.402 22.6632 106.555 22.5238 106.555 22.2533C106.555 21.9278 106.343 21.8602 106.107 21.8602H105.375V22.6632H105.38Z" fill="#E30613"/>
<path d="M105.99 25.2529C104.629 25.2529 103.521 24.1456 103.521 22.7846C103.521 21.4237 104.629 20.3164 105.99 20.3164C107.351 20.3164 108.458 21.4237 108.458 22.7846C108.458 24.1456 107.351 25.2529 105.99 25.2529ZM105.99 20.7686C104.878 20.7686 103.974 21.6731 103.974 22.7846C103.974 23.8962 104.878 24.8007 105.99 24.8007C107.101 24.8007 108.006 23.8962 108.006 22.7846C108.006 21.6731 107.101 20.7686 105.99 20.7686Z" fill="#E30613"/>
<path d="M110.221 34.7257L94.7018 19.1385H60.979V15.5841H53.0164C52.2471 14.8191 41.0724 3.67817 41.0724 3.67817C37.3743 0.237845 32.8097 -0.00306261 29.1327 3.02307L29.1538 3.00617L28.9552 3.16255L4.36574 27.883L4.26431 27.9971C0.938094 31.8601 0.777489 36.86 3.83321 40.7652C3.82898 40.7568 3.95578 40.9216 3.95578 40.9216L4.01072 40.9935L28.4776 65.4604L28.503 65.4392C30.0414 67.058 32.3237 67.9836 34.8722 67.9455C37.3616 67.9033 39.5551 66.9481 41.0428 65.3589L41.0724 65.3885C41.0724 65.3885 52.3824 54.1124 53.1474 53.3432H60.979V49.7887H94.8497L110.226 34.7341L110.221 34.7257ZM59.5758 48.3728V51.9357H52.5684C50.882 53.6179 40.0792 64.3869 40.0792 64.3869L40.3286 64.1037C39.1198 65.6125 37.1207 66.5043 34.8511 66.5381C32.573 66.5719 30.5486 65.7478 29.2891 64.2643L29.4708 64.4629L5.06311 40.0679L4.93631 39.903C2.26942 36.4923 2.41312 32.2912 5.29979 28.9396L5.38009 28.8509L29.8892 4.21071L30.0245 4.10504C33.1225 1.56072 36.9432 1.74669 40.0834 4.67139C40.0834 4.67139 50.7552 15.3094 52.4416 16.9873H59.58V20.5417H94.1228L108.235 34.713L94.2791 48.3813L59.58 48.3728H59.5758Z" fill="white"/>
</g>
</g>
<defs>
<linearGradient id="paint0_linear_1354_8008" x1="54.4058" y1="6.68424" x2="54.4058" y2="63.3355" gradientUnits="userSpaceOnUse">
<stop stop-color="#E30613"/>
<stop offset="1" stop-color="#8A1002"/>
</linearGradient>
<linearGradient id="paint1_linear_1354_8008" x1="55.4311" y1="59.7704" x2="55.4311" y2="9.66586" gradientUnits="userSpaceOnUse">
<stop stop-color="#E20714"/>
<stop offset="1" stop-color="#8A1002"/>
</linearGradient>
<clipPath id="clip0_1354_8008">
<rect width="109.444" height="67.9866" fill="white" transform="translate(0.777344)"/>
</clipPath>
</defs>
</svg>
